:SAMPLES-PER-SECOND 30
:FULLY-SPECIFIED
:DEGREES
263
root  -0.917897 39.9767 -1.70446 53.9164 -84.9725 -54.4224
RightUpLeg  -5.03471 -0.662057 5.9827
RightLeg  10.6047 -29.991 -1.90232
RightFoot  -5.53207 -0.0718138 0.67956
RightToes  -3.1126e-008 1.75238e-005 3.56266e-009
Spine  0.112538 -0.350077 5.36288
Spine1  19.8463 -1.90794 5.07761
HEad  -18.0447 1.30932 1.27418
LeftShoulder1  2.16004 -5.04574 -18.7268
LeftArm  -32.8097 21.3681 -67.5927
LeftForeArm  67.3866 -27.1129 -2.56982
LeftHand  -0.5811 -4.60794 7.02784
RightShoulder  1.77865 3.5854 18.6252
RightArm  -6.73083 -2.0257 37.0802
RightForeArm  43.6366 74.6523 40.0531
RightHand  -0.43208 3.08129 -6.19386
LeftUpLeg  -11.3954 7.642 8.73525
LeftLeg  21.8868 3.00233 1.64965
LeftFoot  -8.99638 0.168617 -5.60775
LeftToes  4.78349e-008 1.46828e-008 1.33736e-009
264
root  -0.711632 40.0733 -1.74349 49.1214 -85.0958 -48.3628
RightUpLeg  -6.12768 -0.591468 5.44219
RightLeg  9.16302 -30.3404 -1.02525
RightFoot  -4.66026 -0.0465063 0.274067
RightToes  -3.1126e-008 1.75238e-005 3.56266e-009
Spine  0.714652 -0.135947 3.41637
Spine1  21.1016 -1.92828 5.45545
HEad  -20.2181 0.995209 0.666595
LeftShoulder1  2.17202 -5.17627 -18.4645
LeftArm  -33.4699 19.8344 -67.8099
LeftForeArm  66.3021 -28.0073 -2.78532
LeftHand  -0.516498 -4.23607 6.50486
RightShoulder  2.05862 4.27494 20.1045
RightArm  -7.23389 -6.44778 39.7539
RightForeArm  45.8032 68.802 24.5301
RightHand  -0.0858337 1.52415 -0.962594
LeftUpLeg  -12.2616 8.06889 8.07517
LeftLeg  19.9945 2.51171 1.33601
LeftFoot  -7.79839 0.21675 -5.4902
LeftToes  4.78349e-008 1.46828e-008 1.33736e-009
265
root  -0.569804 40.1391 -1.74752 42.6442 -84.8166 -40.9434
RightUpLeg  -6.79017 -0.512651 5.08713
RightLeg  7.83751 -30.995 -0.356869
RightFoot  -3.95293 -0.0398981 0.200796
RightToes  -3.1126e-008 1.75238e-005 3.56266e-009
Spine  1.4312 -0.10212 1.96686
Spine1  21.9578 -2.11422 5.82054
HEad  -21.4742 0.595456 0.466279
LeftShoulder1  2.13176 -5.04891 -18.3584
LeftArm  -33.918 18.3455 -67.7786
LeftForeArm  66.935 -28.5282 -2.87044
LeftHand  -0.586089 -4.8866 6.91842
RightShoulder  2.28586 4.73628 21.4756
RightArm  -6.07517 -8.38366 41.1232
RightForeArm  52.317 61.7605 15.8037
RightHand  0.443056 -0.147583 9.36008
LeftUpLeg  -13.129 8.62642 7.58672
LeftLeg  18.8519 1.56241 0.913967
LeftFoot  -6.8317 0.256092 -5.4622
LeftToes  4.78349e-008 1.46828e-008 1.33736e-009
266
root  -0.479626 40.1852 -1.71157 39.4747 -84.8234 -37.0236
RightUpLeg  -7.26423 -0.434919 4.7397
RightLeg  6.65372 -31.3721 0.108886
RightFoot  -3.25195 -0.0278363 0.0833639
RightToes  -3.1126e-008 1.75238e-005 3.56266e-009
Spine  2.12435 0.20273 1.15611
Spine1  22.2855 -1.87601 5.96091
HEad  -21.9733 -0.0882663 0.468152
LeftShoulder1  2.20807 -5.30048 -18.5274
LeftArm  -33.0862 17.0909 -67.1011
LeftForeArm  66.4358 -28.7871 -2.9404
LeftHand  -0.561496 -4.45696 6.90371
RightShoulder  2.40104 4.98608 22.0486
RightArm  -3.79213 -10.1133 42.2715
RightForeArm  56.0579 55.3079 11.5423
RightHand  1.00565 1.16514 17.5442
LeftUpLeg  -13.7134 8.95987 7.02601
LeftLeg  17.9559 1.19501 0.754257
LeftFoot  -6.10197 0.279009 -5.29883
LeftToes  4.78349e-008 1.46828e-008 1.33736e-009
267
root  -0.459718 40.2235 -1.63193 35.9855 -84.4099 -33.0823
RightUpLeg  -7.27635 -0.300687 4.57774
RightLeg  5.45994 -31.9861 0.539778
RightFoot  -2.52327 -0.0111887 -0.142814
RightToes  -3.1126e-008 1.75238e-005 3.56266e-009
Spine  2.6103 0.25063 1.26229
Spine1  22.3787 -1.62785 5.36379
HEad  -21.8347 -0.589284 0.782847
LeftShoulder1  2.19923 -5.2536 -18.5628
LeftArm  -33.1945 15.8008 -66.6043
LeftForeArm  67.3782 -28.7337 -2.8977
LeftHand  -0.541909 -4.40286 6.70287
RightShoulder  2.46625 5.0939 22.4754
RightArm  -1.8537 -11.7892 43.6227
RightForeArm  48.4119 48.839 9.23248
RightHand  1.21479 1.74385 19.4768
LeftUpLeg  -14.0705 9.0872 6.69825
LeftLeg  17.3632 0.692672 0.563267
LeftFoot  -5.6153 0.284516 -5.01248
LeftToes  4.78349e-008 1.46828e-008 1.33736e-009
268
root  -0.517497 40.2486 -1.55795 34.4319 -84.2142 -31.102
RightUpLeg  -7.49468 -0.0715046 4.50927
RightLeg  5.10825 -32.3737 0.420091
RightFoot  -2.21359 -0.00786129 -0.17143
RightToes  -3.1126e-008 1.75238e-005 3.56266e-009
Spine  2.82388 0.294042 1.1206
Spine1  21.8337 -1.46145 5.08129
HEad  -20.8713 -0.886547 0.958871
LeftShoulder1  2.21017 -5.30464 -18.5405
LeftArm  -33.0912 15.3403 -66.0345
LeftForeArm  67.2717 -28.819 -2.91901
LeftHand  -0.476291 -4.09364 6.10617
RightShoulder  2.53687 5.34139 22.4672
RightArm  -2.3409 -14.4506 45.6889
RightForeArm  39.5688 44.0023 8.10751
RightHand  1.05714 1.35641 17.8915
LeftUpLeg  -14.3167 9.11874 6.42961
LeftLeg  16.9925 0.489872 0.488587
LeftFoot  -5.39247 0.28426 -4.84707
LeftToes  4.78349e-008 1.46828e-008 1.33736e-009
269
root  -0.635001 40.2717 -1.45849 32.3208 -83.9389 -28.8983
RightUpLeg  -7.29579 -0.121047 4.33793
RightLeg  4.92655 -32.6524 0.379788
RightFoot  -2.09036 -0.0138293 -0.0638363
RightToes  -3.1126e-008 1.75238e-005 3.56266e-009
Spine  2.39738 0.194374 1.04292
Spine1  22.1762 -1.49716 4.865
HEad  -20.3847 -0.860778 1.20723
LeftShoulder1  2.22651 -5.24771 -18.9172
LeftArm  -33.8036 14.2175 -65.3911
LeftForeArm  67.6294 -28.4206 -2.8248
LeftHand  -0.459836 -4.12292 5.89046
RightShoulder  2.37189 4.82132 22.2718
RightArm  -4.23577 -16.0988 48.1526
RightForeArm  34.2929 40.6118 7.38984
RightHand  0.769854 0.441919 15.3563
LeftUpLeg  -14.1613 8.83095 6.22017
LeftLeg  16.7499 0.439094 0.46899
LeftFoot  -5.34931 0.27492 -4.63796
LeftToes  4.78349e-008 1.46828e-008 1.33736e-009
270
root  -0.784882 40.2791 -1.35143 32.8485 -83.935 -29.5268
RightUpLeg  -6.94612 -0.244485 4.25308
RightLeg  4.96984 -32.534 0.387452
RightFoot  -2.17673 -0.00581364 -0.180381
RightToes  -3.1126e-008 1.75238e-005 3.56266e-009
Spine  1.87101 -0.0880984 0.695542
Spine1  22.2647 -1.7506 4.75287
HEad  -20.0856 -0.560865 1.45797
LeftShoulder1  2.27195 -5.38847 -19.0318
LeftArm  -36.007 14.2923 -65.3074
LeftForeArm  68.2685 -29.6269 -3.05596
LeftHand  -0.392704 -4.33844 4.94604
RightShoulder  2.35735 4.77971 22.2378
RightArm  -6.14751 -17.1829 50.4109
RightForeArm  35.2574 37.8665 6.54378
RightHand  0.670511 1.29694 11.5328
LeftUpLeg  -13.8271 8.91896 6.18302
LeftLeg  16.8327 0.362597 0.443888
LeftFoot  -5.57411 0.258939 -4.47562
LeftToes  4.78349e-008 1.46828e-008 1.33736e-009
271
root  -0.987613 40.2937 -1.25415 33.4639 -83.9439 -30.7196
RightUpLeg  -5.9883 -0.316077 4.27991
RightLeg  5.00925 -32.3713 0.29078
RightFoot  -2.29416 -0.0189379 0.0254564
RightToes  -3.1126e-008 1.75238e-005 3.56266e-009
Spine  1.13153 -0.511703 0.0909861
Spine1  22.673 -2.22163 4.84752
HEad  -20.2403 -0.280054 1.44792
LeftShoulder1  2.36808 -5.5559 -19.6687
LeftArm  -35.7427 14.3489 -64.2165
LeftForeArm  64.3698 -31.9737 -3.68572
LeftHand  -0.117095 -4.66857 1.66985
RightShoulder  2.38 4.90375 22.0774
RightArm  -6.64405 -17.4562 52.0628
RightForeArm  38.4166 35.6872 5.78683
RightHand  0.482881 1.93429 7.48592
LeftUpLeg  -12.8614 8.90319 6.31967
LeftLeg  16.902 0.354483 0.441951
LeftFoot  -5.88244 0.23912 -4.27434
LeftToes  4.78349e-008 1.46828e-008 1.33736e-009
272
root  -1.24058 40.2974 -1.16662 33.7604 -84.0609 -31.7465
RightUpLeg  -5.02226 -0.516275 4.25521
RightLeg  5.65301 -31.9319 -0.128477
RightFoot  -2.73491 -0.0427788 0.392884
RightToes  -3.1126e-008 1.75238e-005 3.56266e-009
Spine  -0.066547 -0.783001 -0.515676
Spine1  23.2365 -2.48705 4.94781
HEad  -20.6629 -0.233134 1.63339
LeftShoulder1  2.37667 -5.52586 -19.8643
LeftArm  -35.9563 12.8055 -63.7017
LeftForeArm  57.7719 -33.8063 -4.37024
LeftHand  0.1276 -5.65416 -1.02228
RightShoulder  2.30198 4.57731 22.2684
RightArm  -6.17324 -17.073 53.0137
RightForeArm  41.8803 33.7307 5.10898
RightHand  0.388857 2.72304 5.32321
LeftUpLeg  -11.6494 8.86601 6.43534
LeftLeg  17.0303 0.435322 0.470509
LeftFoot  -6.34174 0.216913 -4.09626
LeftToes  4.78349e-008 1.46828e-008 1.33736e-009
273
root  -1.54328 40.3123 -1.09523 34.4638 -84.2692 -33.3948
RightUpLeg  -3.51127 -0.66752 4.28949
RightLeg  5.65909 -31.6196 -0.248365
RightFoot  -3.09203 -0.0493814 0.489069
RightToes  -3.1126e-008 1.75238e-005 3.56266e-009
Spine  -1.49304 -1.00298 -1.26229
Spine1  23.6495 -2.72141 5.15794
HEad  -20.9652 -0.200991 1.59191
LeftShoulder1  2.37407 -5.41446 -20.1831
LeftArm  -34.4699 10.6016 -62.9775
LeftForeArm  47.9779 -37.6682 -5.78852
LeftHand  0.190859 -5.87301 -1.62953
RightShoulder  2.34813 4.8017 22.0381
RightArm  -5.73371 -17.1598 53.7918
RightForeArm  42.593 32.7025 4.82784
RightHand  0.336522 2.72765 4.59715
LeftUpLeg  -10.0126 8.76976 6.62343
LeftLeg  16.9758 0.667415 0.550079
LeftFoot  -6.79535 0.195188 -3.88812
LeftToes  4.78349e-008 1.46828e-008 1.33736e-009
274
root  -1.85029 40.3231 -1.03892 33.7331 -84.2929 -33.6017
RightUpLeg  -2.05142 -0.814769 4.29866
RightLeg  5.86935 -31.3895 -0.501196
RightFoot  -3.5815 -0.081565 0.979778
RightToes  -3.1126e-008 1.75238e-005 3.56266e-009
Spine  -2.40362 -0.980625 -1.45059
Spine1  22.4155 -2.41106 4.80375
HEad  -20.2153 -1.00575 1.67957
LeftShoulder1  2.43881 -5.56016 -20.4921
LeftArm  -30.8444 7.1834 -61.638
LeftForeArm  38.427 -42.2888 -7.64824
LeftHand  0.0857383 -4.93306 -0.686264
RightShoulder  2.27624 4.50076 22.2149
RightArm  -5.03746 -18.016 54.0982
RightForeArm  39.1346 32.2146 4.89396
RightHand  0.354668 2.6418 4.9356
LeftUpLeg  -8.37908 8.37111 6.77745
LeftLeg  16.8503 0.949947 0.645208
LeftFoot  -7.2403 0.177625 -3.75332
LeftToes  4.78349e-008 1.46828e-008 1.33736e-009
275
root  -2.18013 40.3343 -1.01651 30.4031 -83.9827 -31.35
RightUpLeg  -0.231522 -0.918919 4.40963
RightLeg  5.70806 -31.7318 -0.741735
RightFoot  -3.93886 -0.102247 1.29057
RightToes  -3.1126e-008 1.75238e-005 3.56266e-009
Spine  -3.42171 -1.26775 -2.09641
Spine1  21.2145 -2.56439 4.87908
HEad  -18.427 -1.09315 1.71877
LeftShoulder1  2.49605 -5.59332 -21.0571
LeftArm  -29.0681 1.86051 -60.6706
LeftForeArm  31.5392 -46.5974 -9.56803
LeftHand  0.00939802 -5.41502 0.240502
RightShoulder  2.24358 4.39063 22.1984
RightArm  -5.08393 -18.8906 54.5616
RightForeArm  35.8545 32.3938 5.1125
RightHand  0.39145 2.00757 5.96646
LeftUpLeg  -6.55766 7.44197 6.93543
LeftLeg  16.5637 1.32039 0.76346
LeftFoot  -7.69709 0.170416 -3.90159
LeftToes  4.78349e-008 1.46828e-008 1.33736e-009
276
root  -2.50549 40.3709 -0.99951 27.7945 -83.7786 -29.6232
RightUpLeg  1.62282 -1.0736 4.42387
RightLeg  4.90718 -31.9322 -0.480763
RightFoot  -4.03349 -0.110546 1.40899
RightToes  -3.1126e-008 1.75238e-005 3.56266e-009
Spine  -4.62158 -1.46853 -2.57097
Spine1  19.5674 -2.46278 4.50136
HEad  -16.0426 -1.20899 1.34452
LeftShoulder1  2.55781 -5.70533 -21.4211
LeftArm  -27.7016 -4.65872 -59.9858
LeftForeArm  23.6665 -50.1133 -11.617
LeftHand  0.231917 -5.82717 -2.09696
RightShoulder  2.20924 4.27885 22.1621
RightArm  -5.28916 -19.9117 55.1647
RightForeArm  32.3188 32.4057 5.30935
RightHand  0.422678 2.32955 6.18267
LeftUpLeg  -4.69855 6.71237 7.0069
LeftLeg  15.8044 1.63184 0.836408
LeftFoot  -7.89714 0.161189 -3.78654
LeftToes  4.78349e-008 1.46828e-008 1.33736e-009
277
root  -2.82071 40.3975 -0.995766 24.6183 -83.4827 -27.1971
RightUpLeg  3.31182 -1.21928 4.41097
RightLeg  4.12701 -32.1989 -0.22158
RightFoot  -4.16783 -0.116202 1.48727
RightToes  -3.1126e-008 1.75238e-005 3.56266e-009
Spine  -5.93178 -2.03033 -3.56025
Spine1  18.624 -2.94413 4.69926
HEad  -13.2128 -0.999545 0.348849
LeftShoulder1  2.52118 -5.4733 -21.7462
LeftArm  -26.8891 -11.505 -59.9674
LeftForeArm  12.6002 -53.7353 -14.3816
LeftHand  0.338674 -4.88227 -3.51477
RightShoulder  2.13076 4.07024 21.8959
RightArm  -4.28067 -19.8468 55.5778
RightForeArm  31.4093 32.6302 5.41495
RightHand  0.383823 2.71496 5.27186
LeftUpLeg  -3.04419 5.75293 6.99435
LeftLeg  15.0582 2.11578 0.936074
LeftFoot  -8.0587 0.158868 -3.85586
LeftToes  4.78349e-008 1.46828e-008 1.33736e-009
